<?xml version="1.0" encoding="utf-8"?>
<!-- Generator: Adobe Illustrator 16.0.0, SVG Export Plug-In . SVG Version: 6.00 Build 0)  -->
<!DOCTYPE svg PUBLIC "-//W3C//DTD SVG 1.1//EN" "http://www.w3.org/Graphics/SVG/1.1/DTD/svg11.dtd">
<svg version="1.1" id="Layer_1" xmlns="http://www.w3.org/2000/svg" xmlns:xlink="http://www.w3.org/1999/xlink" x="0px" y="0px"
	 width="208.9px" height="262.5px" viewBox="0 0 208.9 262.5" enable-background="new 0 0 208.9 262.5" xml:space="preserve">
<g id="Type" display="none">
	<text transform="matrix(1 0 0 1 5.8481 369.0103)" display="inline" fill="#111111" font-family="'NexaThin'" font-size="19.4801">DESIGN IN STYLE</text>
	
		<text transform="matrix(1 0 0 1 -39.2622 335.4614)" display="inline" fill="#111111" font-family="'NexaThin'" font-size="38.9603" letter-spacing="1">MARIAN CEPA</text>
</g>
<g id="Logo">
	<path id="Leg_L" fill="#111111" stroke="#000000" stroke-width="10" stroke-miterlimit="10" d="M21.5,245.2c0,1.8-1.5,3.2-3.3,3.2
		l0,0c-1.8,0-3.3-1.5-3.3-3.2V111c0-1.8,1.5-3.2,3.3-3.2l0,0c1.8,0,3.3,1.5,3.3,3.2V245.2z"/>
	<path id="Leg_R" fill="#111111" stroke="#000000" stroke-width="10" stroke-miterlimit="10" d="M194,245.2c0,1.8-1.5,3.2-3.3,3.2
		l0,0c-1.8,0-3.3-1.5-3.3-3.2V111c0-1.8,1.5-3.2,3.3-3.2l0,0c1.8,0,3.3,1.5,3.3,3.2V245.2z"/>
	<path fill="#111111" stroke="#000000" stroke-width="10" stroke-miterlimit="10" d="M190.7,14.1c-1.8,0-3.3,1.5-3.3,3.3
		c0,22.1-8.6,43-24.3,58.6c-15.7,15.7-36.5,24.3-58.6,24.3c-22.1,0-43-8.6-58.6-24.3C30.2,60.4,21.5,39.6,21.5,17.4
		c0-1.8-1.5-3.3-3.3-3.3s-3.3,1.5-3.3,3.3c0,23.9,9.3,46.4,26.2,63.3C58,97.7,80.5,107,104.5,107c23.9,0,46.4-9.3,63.3-26.3
		C184.7,63.8,194,41.3,194,17.4C194,15.6,192.5,14.1,190.7,14.1z"/>
</g>
</svg>
